<svg height="512" viewBox="0 0 512 512" width="512" xmlns="http://www.w3.org/2000/svg"><g id="flat"><path d="m488 222.742-47.931-18.073 28.154-42.8-65.034-9.181a132.63 132.63 0 0 0 -72.062 9.921 132.621 132.621 0 0 0 -12.832-71.6l-28.829-59.009-32 40-32-40-28.828 59.014a132.631 132.631 0 0 0 -12.833 71.6 132.626 132.626 0 0 0 -72.061-9.921l-65.034 9.181 28.154 42.8-47.931 18.068 47.217 45.658a132.625 132.625 0 0 0 64.13 34.33 132.635 132.635 0 0 0 -31.7 65.469l-11.368 64.684 49.4-13.552 2.377 51.17 58.011-30.801a132.624 132.624 0 0 0 52.467-50.383 132.626 132.626 0 0 0 52.467 50.383l58.01 30.8 2.377-51.17 49.4 13.552-11.365-64.682a132.618 132.618 0 0 0 -31.7-65.469 132.624 132.624 0 0 0 64.131-34.33z" fill="#f2aab6"/><path d="m336.662 264.228-40.869-4.269 40.23-13.072a8 8 0 0 0 -4.945-15.217l-40.231 13.072 30.553-27.476a8 8 0 1 0 -10.7-11.9l-30.69 27.6 16.763-37.717a8 8 0 1 0 -14.621-6.5l-16.685 37.551v-42.3a8 8 0 0 0 -16 0v42.3l-16.69-37.551a8 8 0 1 0 -14.621 6.5l16.764 37.719-30.692-27.6a8 8 0 0 0 -10.7 11.9l30.558 27.477-40.232-13.075a8 8 0 1 0 -4.945 15.217l40.231 13.072-40.869 4.269a8 8 0 0 0 .821 15.958 8.257 8.257 0 0 0 .841-.044l41.05-4.288-35.731 20.661a8 8 0 1 0 8.01 13.851l35.574-20.566-24.864 34.22a8 8 0 1 0 12.943 9.4l24.866-34.22-8.571 40.19a8 8 0 1 0 15.648 3.338l8.609-40.368 8.607 40.367a8 8 0 0 0 15.649-3.336l-8.571-40.191 24.866 34.225a8 8 0 1 0 12.943-9.4l-24.861-34.225 35.575 20.57a8 8 0 1 0 8.01-13.851l-35.735-20.665 41.05 4.288a8.213 8.213 0 0 0 .841.044 8 8 0 0 0 .821-15.958z" fill="#d18d28"/><g fill="#f9ca2e"><circle cx="225.466" cy="192" r="16"/><circle cx="289.466" cy="192" r="16"/><circle cx="179.102" cy="272.185" r="16"/><circle cx="198.879" cy="211.317" r="16"/><circle cx="241.034" cy="341.058" r="16"/><circle cx="189.342" cy="303.355" r="16"/><circle cx="325.675" cy="303.44" r="16"/><circle cx="275.983" cy="337.974" r="16"/><circle cx="316.054" cy="211.317" r="16"/><circle cx="337.916" cy="270.1" r="16"/></g><circle cx="257.466" cy="264" fill="#fece2f" r="24"/><path d="m297.467 152a8 8 0 0 1 -8-8 59.846 59.846 0 0 0 -1.69-14.111 8 8 0 0 1 15.547-3.778 75.816 75.816 0 0 1 2.143 17.889 8 8 0 0 1 -8 8z" fill="#f1746a"/><path d="m285.473 112a8 8 0 0 1 -7.161-4.424l-4-8a8 8 0 0 1 14.31-7.156l4 8a8 8 0 0 1 -7.149 11.58z" fill="#f1746a"/><path d="m155.7 196.878a7.987 7.987 0 0 1 -2.474-.394 59.911 59.911 0 0 0 -13.943-2.755 8 8 0 0 1 1.213-15.953 75.794 75.794 0 0 1 17.675 3.492 8 8 0 0 1 -2.471 15.61z" fill="#f1746a"/><path d="m105.1 197.261a8 8 0 0 1 -1.182-15.912l8.845-1.332a8 8 0 0 1 2.383 15.822l-8.845 1.332a8.163 8.163 0 0 1 -1.201.09z" fill="#f1746a"/><path d="m146.714 359.643a8.006 8.006 0 0 1 -7.4-11.043 75.839 75.839 0 0 1 8.782-15.732 8 8 0 0 1 12.945 9.4 59.817 59.817 0 0 0 -6.928 12.41 8 8 0 0 1 -7.399 4.965z" fill="#f1746a"/><path d="m139.312 393.809a8.01 8.01 0 0 1 -7.9-9.313l1.467-8.823a8 8 0 1 1 15.781 2.627l-1.467 8.823a8 8 0 0 1 -7.881 6.686z" fill="#f1746a"/><path d="m306.591 404.412a7.974 7.974 0 0 1 -5.175-1.9 75.9 75.9 0 0 1 -12.248-13.212 8 8 0 1 1 12.943-9.406 59.881 59.881 0 0 0 9.662 10.423 8 8 0 0 1 -5.182 14.1z" fill="#f1746a"/><path d="m336.791 422.023a7.972 7.972 0 0 1 -3.679-.9l-7.938-4.123a8 8 0 1 1 7.371-14.2l7.938 4.121a8 8 0 0 1 -3.692 15.1z" fill="#f1746a"/><path d="m383.952 272.962a8 8 0 0 1 -2.47-15.61 59.855 59.855 0 0 0 12.9-5.967 8 8 0 1 1 8.4 13.619 75.806 75.806 0 0 1 -16.351 7.564 8 8 0 0 1 -2.479.394z" fill="#f1746a"/><path d="m418.288 249.187a8 8 0 0 1 -5.614-13.7l6.372-6.276a8 8 0 1 1 11.228 11.4l-6.372 6.277a7.975 7.975 0 0 1 -5.614 2.299z" fill="#f1746a"/><g fill="#f2aab6"><path d="m49.467 104a8 8 0 0 1 -5.657-13.657l8-8a8 8 0 0 1 11.314 11.314l-8 8a7.974 7.974 0 0 1 -5.657 2.343z"/><path d="m57.467 56a8 8 0 0 1 -5.657-13.657l8-8a8 8 0 0 1 11.314 11.314l-8 8a7.974 7.974 0 0 1 -5.657 2.343z"/><path d="m425.467 64a8 8 0 0 1 -5.657-13.657l8-8a8 8 0 0 1 11.314 11.314l-8 8a7.974 7.974 0 0 1 -5.657 2.343z"/><path d="m369.467 88a8 8 0 0 1 -5.657-13.657l8-8a8 8 0 0 1 11.314 11.314l-8 8a7.974 7.974 0 0 1 -5.657 2.343z"/><path d="m417.467 120a8 8 0 0 1 -5.657-13.657l8-8a8 8 0 0 1 11.314 11.314l-8 8a7.974 7.974 0 0 1 -5.657 2.343z"/><path d="m57.467 352a8 8 0 0 1 -5.657-13.657l8-8a8 8 0 0 1 11.314 11.314l-8 8a7.974 7.974 0 0 1 -5.657 2.343z"/><path d="m49.467 392a8 8 0 0 1 -5.657-13.657l8-8a8 8 0 0 1 11.314 11.314l-8 8a7.974 7.974 0 0 1 -5.657 2.343z"/><path d="m249.467 480a8 8 0 0 1 -5.657-13.657l8-8a8 8 0 0 1 11.314 11.314l-8 8a7.974 7.974 0 0 1 -5.657 2.343z"/><path d="m449.467 328a8 8 0 0 1 -5.657-13.657l8-8a8 8 0 0 1 11.314 11.314l-8 8a7.974 7.974 0 0 1 -5.657 2.343z"/><path d="m449.467 368a8 8 0 0 1 -5.657-13.657l8-8a8 8 0 0 1 11.314 11.314l-8 8a7.974 7.974 0 0 1 -5.657 2.343z"/></g><circle cx="257.466" cy="168" fill="#fece2f" r="16"/><circle cx="166.25" cy="234.25" fill="#fece2f" r="16"/><circle cx="201.124" cy="341.581" fill="#fece2f" r="16"/><circle cx="313.978" cy="341.581" fill="#fece2f" r="16"/><circle cx="348.852" cy="233.25" fill="#fece2f" r="16"/></g></svg>