<?xml version="1.0" encoding="iso-8859-1"?>
<!-- Generator: Adobe Illustrator 19.0.0, SVG Export Plug-In . SVG Version: 6.00 Build 0)  -->
<svg version="1.1" id="Layer_1" xmlns="http://www.w3.org/2000/svg" xmlns:xlink="http://www.w3.org/1999/xlink" x="0px" y="0px"
	 viewBox="0 0 512.001 512.001" style="enable-background:new 0 0 512.001 512.001;" xml:space="preserve">
<path style="fill:#46C79C;" d="M229.917,61.145c22.562,22.562,26.841,57.085,27.541,73.495c0.303,7.099-2.192,9.533-9.233,9.233
	c-16.411-0.7-50.933-4.979-73.495-27.542c-22.563-22.562-26.842-57.086-27.541-73.495c-0.301-7.041,2.134-9.535,9.233-9.233
	C172.832,34.303,207.354,38.583,229.917,61.145z"/>
<path style="fill:#866539;" d="M256.005,157.457c-12.601,0-22.816-10.216-22.816-22.817V33.579
	c0-12.602,10.215-22.817,22.816-22.817c12.602,0,22.817,10.215,22.817,22.817v101.062
	C278.822,147.242,268.606,157.457,256.005,157.457z"/>
<path style="fill:#65F7C4;" d="M290.382,34.372c-28.133,28.132-33.466,71.175-34.34,91.635c-0.378,8.851,2.734,11.887,11.512,11.511
	c20.46-0.874,63.504-6.206,91.635-34.34c28.132-28.132,33.466-71.177,34.34-91.635c0.375-8.779-2.661-11.89-11.512-11.512
	C361.557,0.904,318.513,6.241,290.382,34.372z"/>
<path style="fill:#FF6376;" d="M29.058,216.426c0-65.229,52.879-118.107,118.107-118.107c43.111,0,78.63,22.455,108.832,22.455
	s65.72-22.455,108.831-22.455h0.008c65.229,0,118.107,52.879,118.107,118.107c0,72.967-36.491,295.575-161.856,295.575h-0.007
	c-32.542,0-41.631-16.06-65.082-16.06c-23.453,0-32.542,16.06-65.084,16.06C65.548,512.001,29.058,289.393,29.058,216.426z"/>
<g>
	<circle style="fill:#3F4963;" cx="136.443" cy="233.912" r="15.491"/>
	<circle style="fill:#3F4963;" cx="375.558" cy="233.912" r="15.491"/>
</g>
<g>
	<path style="fill:#FF9596;" d="M153.021,287.739h-33.146c-4.547,0-8.234-3.687-8.234-8.234c0-4.547,3.687-8.234,8.234-8.234h33.146
		c4.547,0,8.234,3.687,8.234,8.234C161.255,284.052,157.568,287.739,153.021,287.739z"/>
	<path style="fill:#FF9596;" d="M392.136,287.739H358.99c-4.547,0-8.234-3.687-8.234-8.234c0-4.547,3.687-8.234,8.234-8.234h33.146
		c4.547,0,8.234,3.687,8.234,8.234C400.37,284.052,396.683,287.739,392.136,287.739z"/>
</g>
<g>
	<path style="fill:#3F4963;" d="M236.607,277.034c-15.236,0-27.632-12.395-27.632-27.63c0-4.547,3.687-8.234,8.234-8.234
		c4.547,0,8.234,3.687,8.234,8.234c0,6.155,5.008,11.162,11.164,11.162s11.164-5.007,11.164-11.162c0-4.547,3.687-8.234,8.234-8.234
		c4.547,0,8.234,3.687,8.234,8.234C264.239,264.639,251.843,277.034,236.607,277.034z"/>
	<path style="fill:#3F4963;" d="M275.402,277.034c-15.236,0-27.631-12.395-27.631-27.63c0-4.547,3.687-8.234,8.234-8.234
		c4.547,0,8.234,3.687,8.234,8.234c0,6.155,5.008,11.162,11.163,11.162c6.156,0,11.164-5.007,11.164-11.162
		c0-4.547,3.687-8.234,8.234-8.234c4.547,0,8.234,3.687,8.234,8.234C303.034,264.639,290.638,277.034,275.402,277.034z"/>
</g>
<g>
</g>
<g>
</g>
<g>
</g>
<g>
</g>
<g>
</g>
<g>
</g>
<g>
</g>
<g>
</g>
<g>
</g>
<g>
</g>
<g>
</g>
<g>
</g>
<g>
</g>
<g>
</g>
<g>
</g>
</svg>
